<?xml version="1.0" encoding="UTF-8" standalone="no"?>
<!-- Created with Inkscape (http://www.inkscape.org/) -->

<svg
   xmlns:dc="http://purl.org/dc/elements/1.1/"
   xmlns:cc="http://creativecommons.org/ns#"
   xmlns:rdf="http://www.w3.org/1999/02/22-rdf-syntax-ns#"
   xmlns:svg="http://www.w3.org/2000/svg"
   xmlns="http://www.w3.org/2000/svg"
   xmlns:sodipodi="http://sodipodi.sourceforge.net/DTD/sodipodi-0.dtd"
   xmlns:inkscape="http://www.inkscape.org/namespaces/inkscape"
   width="55"
   height="55"
   id="svg2"
   version="1.1"
   inkscape:version="0.48.4 r9939"
   sodipodi:docname="dibujo.svg">
  <defs
     id="defs4" />
  <sodipodi:namedview
     id="base"
     pagecolor="#ffffff"
     bordercolor="#666666"
     borderopacity="1.0"
     inkscape:pageopacity="0.0"
     inkscape:pageshadow="2"
     inkscape:zoom="7.9195959"
     inkscape:cx="60.326789"
     inkscape:cy="29.372636"
     inkscape:document-units="px"
     inkscape:current-layer="layer1"
     showgrid="false"
     inkscape:window-width="1366"
     inkscape:window-height="744"
     inkscape:window-x="0"
     inkscape:window-y="24"
     inkscape:window-maximized="1" />
  <metadata
     id="metadata7">
    <rdf:RDF>
      <cc:Work
         rdf:about="">
        <dc:format>image/svg+xml</dc:format>
        <dc:type
           rdf:resource="http://purl.org/dc/dcmitype/StillImage" />
        <dc:title />
      </cc:Work>
    </rdf:RDF>
  </metadata>
  <g
     inkscape:label="Capa 1"
     inkscape:groupmode="layer"
     id="layer1"
     transform="translate(0,-997.36218)">
    <g
       id="g3069">
      <path
         transform="matrix(0.18673532,0,0,0.18673532,14.755974,1021.5328)"
         d="m 21.844548,20.781082 a 10.101525,10.101525 0 1 1 -20.2030504,0 10.101525,10.101525 0 1 1 20.2030504,0 z"
         sodipodi:ry="10.101525"
         sodipodi:rx="10.101525"
         sodipodi:cy="20.781082"
         sodipodi:cx="11.743023"
         id="path2985"
         style="fill:#000000;fill-opacity:1;fill-rule:evenodd;stroke:#000000;stroke-width:0.2390071;stroke-miterlimit:4;stroke-opacity:1;stroke-dasharray:none"
         sodipodi:type="arc" />
      <path
         transform="matrix(0.18673532,0,0,0.18673532,14.755974,1031.5328)"
         d="m 21.844548,20.781082 a 10.101525,10.101525 0 1 1 -20.2030504,0 10.101525,10.101525 0 1 1 20.2030504,0 z"
         sodipodi:ry="10.101525"
         sodipodi:rx="10.101525"
         sodipodi:cy="20.781082"
         sodipodi:cx="11.743023"
         id="path2985-4"
         style="fill:#000000;fill-opacity:1;fill-rule:evenodd;stroke:#000000;stroke-width:0.2390071;stroke-miterlimit:4;stroke-opacity:1;stroke-dasharray:none"
         sodipodi:type="arc" />
      <path
         transform="matrix(0.18673532,0,0,0.18673532,14.755974,1001.5328)"
         d="m 21.844548,20.781082 a 10.101525,10.101525 0 1 1 -20.2030504,0 10.101525,10.101525 0 1 1 20.2030504,0 z"
         sodipodi:ry="10.101525"
         sodipodi:rx="10.101525"
         sodipodi:cy="20.781082"
         sodipodi:cx="11.743023"
         id="path2985-47"
         style="fill:#000000;fill-opacity:1;fill-rule:evenodd;stroke:#000000;stroke-width:0.2390071;stroke-miterlimit:4;stroke-opacity:1;stroke-dasharray:none"
         sodipodi:type="arc" />
      <path
         transform="matrix(0.18673532,0,0,0.18673532,14.755974,1011.5328)"
         d="m 21.844548,20.781082 a 10.101525,10.101525 0 1 1 -20.2030504,0 10.101525,10.101525 0 1 1 20.2030504,0 z"
         sodipodi:ry="10.101525"
         sodipodi:rx="10.101525"
         sodipodi:cy="20.781082"
         sodipodi:cx="11.743023"
         id="path2985-6"
         style="fill:#000000;fill-opacity:1;fill-rule:evenodd;stroke:#000000;stroke-width:0.2390071;stroke-miterlimit:4;stroke-opacity:1;stroke-dasharray:none"
         sodipodi:type="arc" />
      <path
         transform="matrix(0.18673532,0,0,0.18673532,14.755974,1041.5328)"
         d="m 21.844548,20.781082 a 10.101525,10.101525 0 1 1 -20.2030504,0 10.101525,10.101525 0 1 1 20.2030504,0 z"
         sodipodi:ry="10.101525"
         sodipodi:rx="10.101525"
         sodipodi:cy="20.781082"
         sodipodi:cx="11.743023"
         id="path2985-5"
         style="fill:#000000;fill-opacity:1;fill-rule:evenodd;stroke:#000000;stroke-width:0.2390071;stroke-miterlimit:4;stroke-opacity:1;stroke-dasharray:none"
         sodipodi:type="arc" />
      <path
         transform="matrix(0.18673532,0,0,0.18673532,24.755974,1021.5328)"
         d="m 21.844548,20.781082 a 10.101525,10.101525 0 1 1 -20.2030504,0 10.101525,10.101525 0 1 1 20.2030504,0 z"
         sodipodi:ry="10.101525"
         sodipodi:rx="10.101525"
         sodipodi:cy="20.781082"
         sodipodi:cx="11.743023"
         id="path2985-49"
         style="fill:#000000;fill-opacity:1;fill-rule:evenodd;stroke:#000000;stroke-width:0.2390071;stroke-miterlimit:4;stroke-opacity:1;stroke-dasharray:none"
         sodipodi:type="arc" />
      <path
         transform="matrix(0.18673532,0,0,0.18673532,24.755974,1031.5328)"
         d="m 21.844548,20.781082 a 10.101525,10.101525 0 1 1 -20.2030504,0 10.101525,10.101525 0 1 1 20.2030504,0 z"
         sodipodi:ry="10.101525"
         sodipodi:rx="10.101525"
         sodipodi:cy="20.781082"
         sodipodi:cx="11.743023"
         id="path2985-4-9"
         style="fill:#000000;fill-opacity:1;fill-rule:evenodd;stroke:#000000;stroke-width:0.2390071;stroke-miterlimit:4;stroke-opacity:1;stroke-dasharray:none"
         sodipodi:type="arc" />
      <path
         transform="matrix(0.18673532,0,0,0.18673532,24.755974,1001.5328)"
         d="m 21.844548,20.781082 a 10.101525,10.101525 0 1 1 -20.2030504,0 10.101525,10.101525 0 1 1 20.2030504,0 z"
         sodipodi:ry="10.101525"
         sodipodi:rx="10.101525"
         sodipodi:cy="20.781082"
         sodipodi:cx="11.743023"
         id="path2985-47-2"
         style="fill:#000000;fill-opacity:1;fill-rule:evenodd;stroke:#000000;stroke-width:0.2390071;stroke-miterlimit:4;stroke-opacity:1;stroke-dasharray:none"
         sodipodi:type="arc" />
      <path
         transform="matrix(0.18673532,0,0,0.18673532,24.755974,1011.5328)"
         d="m 21.844548,20.781082 a 10.101525,10.101525 0 1 1 -20.2030504,0 10.101525,10.101525 0 1 1 20.2030504,0 z"
         sodipodi:ry="10.101525"
         sodipodi:rx="10.101525"
         sodipodi:cy="20.781082"
         sodipodi:cx="11.743023"
         id="path2985-6-8"
         style="fill:#000000;fill-opacity:1;fill-rule:evenodd;stroke:#000000;stroke-width:0.2390071;stroke-miterlimit:4;stroke-opacity:1;stroke-dasharray:none"
         sodipodi:type="arc" />
      <path
         transform="matrix(0.18673532,0,0,0.18673532,24.755974,1041.5328)"
         d="m 21.844548,20.781082 a 10.101525,10.101525 0 1 1 -20.2030504,0 10.101525,10.101525 0 1 1 20.2030504,0 z"
         sodipodi:ry="10.101525"
         sodipodi:rx="10.101525"
         sodipodi:cy="20.781082"
         sodipodi:cx="11.743023"
         id="path2985-5-9"
         style="fill:#000000;fill-opacity:1;fill-rule:evenodd;stroke:#000000;stroke-width:0.2390071;stroke-miterlimit:4;stroke-opacity:1;stroke-dasharray:none"
         sodipodi:type="arc" />
      <path
         transform="matrix(0.18673532,0,0,0.18673532,34.755974,1021.5328)"
         d="m 21.844548,20.781082 a 10.101525,10.101525 0 1 1 -20.2030504,0 10.101525,10.101525 0 1 1 20.2030504,0 z"
         sodipodi:ry="10.101525"
         sodipodi:rx="10.101525"
         sodipodi:cy="20.781082"
         sodipodi:cx="11.743023"
         id="path2985-0"
         style="fill:#000000;fill-opacity:1;fill-rule:evenodd;stroke:#000000;stroke-width:0.2390071;stroke-miterlimit:4;stroke-opacity:1;stroke-dasharray:none"
         sodipodi:type="arc" />
      <path
         transform="matrix(0.18673532,0,0,0.18673532,34.755974,1031.5328)"
         d="m 21.844548,20.781082 a 10.101525,10.101525 0 1 1 -20.2030504,0 10.101525,10.101525 0 1 1 20.2030504,0 z"
         sodipodi:ry="10.101525"
         sodipodi:rx="10.101525"
         sodipodi:cy="20.781082"
         sodipodi:cx="11.743023"
         id="path2985-4-5"
         style="fill:#000000;fill-opacity:1;fill-rule:evenodd;stroke:#000000;stroke-width:0.2390071;stroke-miterlimit:4;stroke-opacity:1;stroke-dasharray:none"
         sodipodi:type="arc" />
      <path
         transform="matrix(0.18673532,0,0,0.18673532,34.755974,1001.5328)"
         d="m 21.844548,20.781082 a 10.101525,10.101525 0 1 1 -20.2030504,0 10.101525,10.101525 0 1 1 20.2030504,0 z"
         sodipodi:ry="10.101525"
         sodipodi:rx="10.101525"
         sodipodi:cy="20.781082"
         sodipodi:cx="11.743023"
         id="path2985-47-7"
         style="fill:#000000;fill-opacity:1;fill-rule:evenodd;stroke:#000000;stroke-width:0.2390071;stroke-miterlimit:4;stroke-opacity:1;stroke-dasharray:none"
         sodipodi:type="arc" />
      <path
         transform="matrix(0.18673532,0,0,0.18673532,34.755974,1011.5328)"
         d="m 21.844548,20.781082 a 10.101525,10.101525 0 1 1 -20.2030504,0 10.101525,10.101525 0 1 1 20.2030504,0 z"
         sodipodi:ry="10.101525"
         sodipodi:rx="10.101525"
         sodipodi:cy="20.781082"
         sodipodi:cx="11.743023"
         id="path2985-6-1"
         style="fill:#000000;fill-opacity:1;fill-rule:evenodd;stroke:#000000;stroke-width:0.2390071;stroke-miterlimit:4;stroke-opacity:1;stroke-dasharray:none"
         sodipodi:type="arc" />
      <path
         transform="matrix(0.18673532,0,0,0.18673532,34.755974,1041.5328)"
         d="m 21.844548,20.781082 a 10.101525,10.101525 0 1 1 -20.2030504,0 10.101525,10.101525 0 1 1 20.2030504,0 z"
         sodipodi:ry="10.101525"
         sodipodi:rx="10.101525"
         sodipodi:cy="20.781082"
         sodipodi:cx="11.743023"
         id="path2985-5-2"
         style="fill:#000000;fill-opacity:1;fill-rule:evenodd;stroke:#000000;stroke-width:0.2390071;stroke-miterlimit:4;stroke-opacity:1;stroke-dasharray:none"
         sodipodi:type="arc" />
      <path
         transform="matrix(0.18673532,0,0,0.18673532,44.755974,1021.5328)"
         d="m 21.844548,20.781082 a 10.101525,10.101525 0 1 1 -20.2030504,0 10.101525,10.101525 0 1 1 20.2030504,0 z"
         sodipodi:ry="10.101525"
         sodipodi:rx="10.101525"
         sodipodi:cy="20.781082"
         sodipodi:cx="11.743023"
         id="path2985-53"
         style="fill:#000000;fill-opacity:1;fill-rule:evenodd;stroke:#000000;stroke-width:0.2390071;stroke-miterlimit:4;stroke-opacity:1;stroke-dasharray:none"
         sodipodi:type="arc" />
      <path
         transform="matrix(0.18673532,0,0,0.18673532,44.755974,1031.5328)"
         d="m 21.844548,20.781082 a 10.101525,10.101525 0 1 1 -20.2030504,0 10.101525,10.101525 0 1 1 20.2030504,0 z"
         sodipodi:ry="10.101525"
         sodipodi:rx="10.101525"
         sodipodi:cy="20.781082"
         sodipodi:cx="11.743023"
         id="path2985-4-4"
         style="fill:#000000;fill-opacity:1;fill-rule:evenodd;stroke:#000000;stroke-width:0.2390071;stroke-miterlimit:4;stroke-opacity:1;stroke-dasharray:none"
         sodipodi:type="arc" />
      <path
         transform="matrix(0.18673532,0,0,0.18673532,44.755974,1001.5328)"
         d="m 21.844548,20.781082 a 10.101525,10.101525 0 1 1 -20.2030504,0 10.101525,10.101525 0 1 1 20.2030504,0 z"
         sodipodi:ry="10.101525"
         sodipodi:rx="10.101525"
         sodipodi:cy="20.781082"
         sodipodi:cx="11.743023"
         id="path2985-47-6"
         style="fill:#000000;fill-opacity:1;fill-rule:evenodd;stroke:#000000;stroke-width:0.2390071;stroke-miterlimit:4;stroke-opacity:1;stroke-dasharray:none"
         sodipodi:type="arc" />
      <path
         transform="matrix(0.18673532,0,0,0.18673532,44.755974,1011.5328)"
         d="m 21.844548,20.781082 a 10.101525,10.101525 0 1 1 -20.2030504,0 10.101525,10.101525 0 1 1 20.2030504,0 z"
         sodipodi:ry="10.101525"
         sodipodi:rx="10.101525"
         sodipodi:cy="20.781082"
         sodipodi:cx="11.743023"
         id="path2985-6-4"
         style="fill:#000000;fill-opacity:1;fill-rule:evenodd;stroke:#000000;stroke-width:0.2390071;stroke-miterlimit:4;stroke-opacity:1;stroke-dasharray:none"
         sodipodi:type="arc" />
      <path
         transform="matrix(0.18673532,0,0,0.18673532,44.755974,1041.5328)"
         d="m 21.844548,20.781082 a 10.101525,10.101525 0 1 1 -20.2030504,0 10.101525,10.101525 0 1 1 20.2030504,0 z"
         sodipodi:ry="10.101525"
         sodipodi:rx="10.101525"
         sodipodi:cy="20.781082"
         sodipodi:cx="11.743023"
         id="path2985-5-5"
         style="fill:#000000;fill-opacity:1;fill-rule:evenodd;stroke:#000000;stroke-width:0.2390071;stroke-miterlimit:4;stroke-opacity:1;stroke-dasharray:none"
         sodipodi:type="arc" />
      <path
         transform="matrix(0.18673532,0,0,0.18673532,4.7559744,1021.5328)"
         d="m 21.844548,20.781082 a 10.101525,10.101525 0 1 1 -20.2030504,0 10.101525,10.101525 0 1 1 20.2030504,0 z"
         sodipodi:ry="10.101525"
         sodipodi:rx="10.101525"
         sodipodi:cy="20.781082"
         sodipodi:cx="11.743023"
         id="path2985-50"
         style="fill:#000000;fill-opacity:1;fill-rule:evenodd;stroke:#000000;stroke-width:0.2390071;stroke-miterlimit:4;stroke-opacity:1;stroke-dasharray:none"
         sodipodi:type="arc" />
      <path
         transform="matrix(0.18673532,0,0,0.18673532,4.7559744,1031.5328)"
         d="m 21.844548,20.781082 a 10.101525,10.101525 0 1 1 -20.2030504,0 10.101525,10.101525 0 1 1 20.2030504,0 z"
         sodipodi:ry="10.101525"
         sodipodi:rx="10.101525"
         sodipodi:cy="20.781082"
         sodipodi:cx="11.743023"
         id="path2985-4-93"
         style="fill:#000000;fill-opacity:1;fill-rule:evenodd;stroke:#000000;stroke-width:0.2390071;stroke-miterlimit:4;stroke-opacity:1;stroke-dasharray:none"
         sodipodi:type="arc" />
      <path
         transform="matrix(0.18673532,0,0,0.18673532,4.7559744,1001.5328)"
         d="m 21.844548,20.781082 a 10.101525,10.101525 0 1 1 -20.2030504,0 10.101525,10.101525 0 1 1 20.2030504,0 z"
         sodipodi:ry="10.101525"
         sodipodi:rx="10.101525"
         sodipodi:cy="20.781082"
         sodipodi:cx="11.743023"
         id="path2985-47-28"
         style="fill:#000000;fill-opacity:1;fill-rule:evenodd;stroke:#000000;stroke-width:0.2390071;stroke-miterlimit:4;stroke-opacity:1;stroke-dasharray:none"
         sodipodi:type="arc" />
      <path
         transform="matrix(0.18673532,0,0,0.18673532,4.7559744,1011.5328)"
         d="m 21.844548,20.781082 a 10.101525,10.101525 0 1 1 -20.2030504,0 10.101525,10.101525 0 1 1 20.2030504,0 z"
         sodipodi:ry="10.101525"
         sodipodi:rx="10.101525"
         sodipodi:cy="20.781082"
         sodipodi:cx="11.743023"
         id="path2985-6-7"
         style="fill:#000000;fill-opacity:1;fill-rule:evenodd;stroke:#000000;stroke-width:0.2390071;stroke-miterlimit:4;stroke-opacity:1;stroke-dasharray:none"
         sodipodi:type="arc" />
      <path
         transform="matrix(0.18673532,0,0,0.18673532,4.7559744,1041.5328)"
         d="m 21.844548,20.781082 a 10.101525,10.101525 0 1 1 -20.2030504,0 10.101525,10.101525 0 1 1 20.2030504,0 z"
         sodipodi:ry="10.101525"
         sodipodi:rx="10.101525"
         sodipodi:cy="20.781082"
         sodipodi:cx="11.743023"
         id="path2985-5-6"
         style="fill:#000000;fill-opacity:1;fill-rule:evenodd;stroke:#000000;stroke-width:0.2390071;stroke-miterlimit:4;stroke-opacity:1;stroke-dasharray:none"
         sodipodi:type="arc" />
    </g>
    <path
       style="fill:#ff0000;stroke:#ff0000;stroke-width:3.08492684px;stroke-linecap:butt;stroke-linejoin:miter;stroke-opacity:1"
       d="m 17.179527,1005.4531 9.961389,0"
       id="path3938"
       inkscape:connector-curvature="0" />
    <path
       style="fill:#ff0000;stroke:#ff0000;stroke-width:3.08492684px;stroke-linecap:butt;stroke-linejoin:miter;stroke-opacity:1"
       d="m 36.870566,1035.2596 0,9.9614"
       id="path3938-7"
       inkscape:connector-curvature="0" />
    <path
       style="fill:#ff0000;stroke:#ff0000;stroke-width:3.08492684px;stroke-linecap:butt;stroke-linejoin:miter;stroke-opacity:1"
       d="m 37.066906,1025.4668 9.96139,0"
       id="path3938-9"
       inkscape:connector-curvature="0"
       inkscape:transform-center-x="0.75761441"
       inkscape:transform-center-y="-11.490485" />
    <path
       style="fill:#ff0000;stroke:#ff0000;stroke-width:3.08492684px;stroke-linecap:butt;stroke-linejoin:miter;stroke-opacity:1"
       d="m 47.098366,1005.2076 0,9.9614"
       id="path3938-7-0"
       inkscape:connector-curvature="0" />
    <path
       style="fill:#ff0000;stroke:#ff0000;stroke-width:3.08492684px;stroke-linecap:butt;stroke-linejoin:miter;stroke-opacity:1"
       d="m 26.77251,1015.3688 9.961386,0"
       id="path3938-6"
       inkscape:connector-curvature="0" />
    <path
       style="fill:#ff0000;stroke:#ff0000;stroke-width:3.08492684px;stroke-linecap:butt;stroke-linejoin:miter;stroke-opacity:1"
       d="m 36.867096,1005.4006 0,9.9614"
       id="path3938-7-1"
       inkscape:connector-curvature="0" />
    <path
       style="fill:#ff0000;stroke:#ff0000;stroke-width:3.08492684px;stroke-linecap:butt;stroke-linejoin:miter;stroke-opacity:1"
       d="m 17.04979,1035.4456 9.961389,0"
       id="path3938-73"
       inkscape:connector-curvature="0" />
    <path
       style="fill:#ff0000;stroke:#ff0000;stroke-width:3.08492684px;stroke-linecap:butt;stroke-linejoin:miter;stroke-opacity:1"
       d="m 47.221166,1025.2248 0,9.9614"
       id="path3938-7-8"
       inkscape:connector-curvature="0" />
    <path
       style="fill:#ff0000;stroke:#ff0000;stroke-width:3.08492684px;stroke-linecap:butt;stroke-linejoin:miter;stroke-opacity:1"
       d="m 16.793786,1015.4354 0,9.9614"
       id="path3938-7-02"
       inkscape:connector-curvature="0" />
    <path
       style="fill:#ff0000;stroke:#ff0000;stroke-width:3.08492684px;stroke-linecap:butt;stroke-linejoin:miter;stroke-opacity:1"
       d="m 6.8185297,1005.0814 0,9.9613"
       id="path3938-7-7"
       inkscape:connector-curvature="0" />
    <path
       style="fill:#ff0000;stroke:#ff0000;stroke-width:3.08492684px;stroke-linecap:butt;stroke-linejoin:miter;stroke-opacity:1"
       d="m 6.9447987,1015.8142 0,9.9613"
       id="path3938-7-88"
       inkscape:connector-curvature="0" />
    <path
       style="fill:#ff0000;stroke:#ff0000;stroke-width:3.08492684px;stroke-linecap:butt;stroke-linejoin:miter;stroke-opacity:1"
       d="m 7.0710678,1035.3859 0,9.9614"
       id="path3938-7-5"
       inkscape:connector-curvature="0" />
  </g>
</svg>
